<mxfile host="www.draw.io" modified="2020-05-08T09:20:41.310Z" agent="5.0 (Macintosh; Intel Mac OS X 10_14_4) AppleWebKit/537.36 (KHTML, like Gecko) Chrome/81.0.4044.122 Safari/537.36" etag="oOWYS9LV_hvuVASULfPe" version="13.0.1" type="github">
  <diagram id="XJ8-2Lu72BTsMdCGSrW2" name="第 1 页">
    <mxGraphModel dx="2031" dy="726" grid="1" gridSize="10" guides="1" tooltips="1" connect="1" arrows="1" fold="1" page="1" pageScale="1" pageWidth="700" pageHeight="1000" math="0" shadow="0">
      <root>
        <mxCell id="0" />
        <mxCell id="1" parent="0" />
        <mxCell id="gQ2CgvajjqF3SDFCfg23-27" value="" style="rounded=0;whiteSpace=wrap;html=1;dashed=1;shadow=0;" vertex="1" parent="1">
          <mxGeometry x="-390" y="880" width="960" height="430" as="geometry" />
        </mxCell>
        <mxCell id="gQ2CgvajjqF3SDFCfg23-55" style="edgeStyle=orthogonalEdgeStyle;rounded=0;orthogonalLoop=1;jettySize=auto;html=1;exitX=0;exitY=0.25;exitDx=0;exitDy=0;entryX=0.75;entryY=0;entryDx=0;entryDy=0;startArrow=classic;startFill=1;fontSize=12;" edge="1" parent="1" source="gQ2CgvajjqF3SDFCfg23-54" target="gQ2CgvajjqF3SDFCfg23-40">
          <mxGeometry relative="1" as="geometry" />
        </mxCell>
        <mxCell id="gQ2CgvajjqF3SDFCfg23-56" value="消息的订阅/发布" style="edgeLabel;html=1;align=center;verticalAlign=middle;resizable=0;points=[];fontSize=12;" vertex="1" connectable="0" parent="gQ2CgvajjqF3SDFCfg23-55">
          <mxGeometry x="-0.1606" relative="1" as="geometry">
            <mxPoint as="offset" />
          </mxGeometry>
        </mxCell>
        <mxCell id="gQ2CgvajjqF3SDFCfg23-57" value="读/写" style="edgeStyle=orthogonalEdgeStyle;rounded=0;orthogonalLoop=1;jettySize=auto;html=1;exitX=1;exitY=0.5;exitDx=0;exitDy=0;entryX=0.25;entryY=0;entryDx=0;entryDy=0;startArrow=none;startFill=0;fontSize=12;" edge="1" parent="1" source="gQ2CgvajjqF3SDFCfg23-54" target="gQ2CgvajjqF3SDFCfg23-32">
          <mxGeometry relative="1" as="geometry" />
        </mxCell>
        <mxCell id="gQ2CgvajjqF3SDFCfg23-54" value="" style="rounded=0;whiteSpace=wrap;html=1;shadow=0;fontSize=12;dashed=1;" vertex="1" parent="1">
          <mxGeometry x="-50" y="1020" width="240" height="250" as="geometry" />
        </mxCell>
        <mxCell id="gQ2CgvajjqF3SDFCfg23-2" value="" style="rounded=0;whiteSpace=wrap;html=1;dashed=1;shadow=0;" vertex="1" parent="1">
          <mxGeometry x="-70" y="270" width="640" height="410" as="geometry" />
        </mxCell>
        <mxCell id="gQ2CgvajjqF3SDFCfg23-4" value="通过浏览器进行访问" style="edgeStyle=orthogonalEdgeStyle;rounded=0;orthogonalLoop=1;jettySize=auto;html=1;" edge="1" parent="1" source="gQ2CgvajjqF3SDFCfg23-1" target="gQ2CgvajjqF3SDFCfg23-3">
          <mxGeometry relative="1" as="geometry" />
        </mxCell>
        <mxCell id="gQ2CgvajjqF3SDFCfg23-1" value="用户" style="shape=umlActor;verticalLabelPosition=bottom;labelBackgroundColor=#ffffff;verticalAlign=top;html=1;outlineConnect=0;" vertex="1" parent="1">
          <mxGeometry x="335" y="100" width="30" height="60" as="geometry" />
        </mxCell>
        <mxCell id="gQ2CgvajjqF3SDFCfg23-7" value="http" style="edgeStyle=orthogonalEdgeStyle;rounded=0;orthogonalLoop=1;jettySize=auto;html=1;exitX=0.5;exitY=1;exitDx=0;exitDy=0;" edge="1" parent="1" source="gQ2CgvajjqF3SDFCfg23-3" target="gQ2CgvajjqF3SDFCfg23-6">
          <mxGeometry relative="1" as="geometry" />
        </mxCell>
        <mxCell id="gQ2CgvajjqF3SDFCfg23-42" value="查看三维点云" style="edgeStyle=orthogonalEdgeStyle;rounded=0;orthogonalLoop=1;jettySize=auto;html=1;exitX=0;exitY=0.75;exitDx=0;exitDy=0;entryX=0.75;entryY=0;entryDx=0;entryDy=0;fontSize=12;" edge="1" parent="1" source="gQ2CgvajjqF3SDFCfg23-3" target="gQ2CgvajjqF3SDFCfg23-15">
          <mxGeometry x="0.0811" y="15" relative="1" as="geometry">
            <mxPoint x="-15" y="15" as="offset" />
          </mxGeometry>
        </mxCell>
        <mxCell id="gQ2CgvajjqF3SDFCfg23-45" style="edgeStyle=orthogonalEdgeStyle;rounded=0;orthogonalLoop=1;jettySize=auto;html=1;exitX=0;exitY=0.25;exitDx=0;exitDy=0;entryX=0;entryY=0.25;entryDx=0;entryDy=0;startArrow=classic;startFill=1;fontSize=12;" edge="1" parent="1" source="gQ2CgvajjqF3SDFCfg23-3" target="gQ2CgvajjqF3SDFCfg23-40">
          <mxGeometry relative="1" as="geometry">
            <Array as="points">
              <mxPoint x="-360" y="325" />
              <mxPoint x="-360" y="1175" />
            </Array>
          </mxGeometry>
        </mxCell>
        <mxCell id="gQ2CgvajjqF3SDFCfg23-46" value="订阅某个站端机器人消息&lt;br&gt;(如红外视频流，可见光视频流等)" style="edgeLabel;html=1;align=center;verticalAlign=middle;resizable=0;points=[];fontSize=12;" vertex="1" connectable="0" parent="gQ2CgvajjqF3SDFCfg23-45">
          <mxGeometry x="0.2539" y="-4" relative="1" as="geometry">
            <mxPoint y="20.71" as="offset" />
          </mxGeometry>
        </mxCell>
        <mxCell id="gQ2CgvajjqF3SDFCfg23-3" value="&lt;p style=&quot;line-height: 170%&quot;&gt;&lt;font style=&quot;font-size: 16px&quot;&gt;Web应用&lt;/font&gt;&lt;br&gt;根据用户权限不同分配不同访问界面&lt;br&gt;&lt;/p&gt;" style="rounded=0;whiteSpace=wrap;html=1;shadow=0;fillColor=#dae8fc;strokeColor=#6c8ebf;" vertex="1" parent="1">
          <mxGeometry x="220" y="310" width="260" height="70" as="geometry" />
        </mxCell>
        <mxCell id="gQ2CgvajjqF3SDFCfg23-5" value="易达云智慧运维系统" style="text;html=1;strokeColor=none;fillColor=none;align=center;verticalAlign=middle;whiteSpace=wrap;rounded=0;shadow=0;" vertex="1" parent="1">
          <mxGeometry x="-60" y="280" width="130" height="20" as="geometry" />
        </mxCell>
        <mxCell id="gQ2CgvajjqF3SDFCfg23-9" value="读写" style="edgeStyle=orthogonalEdgeStyle;rounded=0;orthogonalLoop=1;jettySize=auto;html=1;exitX=0.5;exitY=1;exitDx=0;exitDy=0;entryX=0.5;entryY=0;entryDx=0;entryDy=0;" edge="1" parent="1" source="gQ2CgvajjqF3SDFCfg23-6" target="gQ2CgvajjqF3SDFCfg23-8">
          <mxGeometry relative="1" as="geometry" />
        </mxCell>
        <mxCell id="gQ2CgvajjqF3SDFCfg23-13" style="edgeStyle=orthogonalEdgeStyle;rounded=0;orthogonalLoop=1;jettySize=auto;html=1;exitX=1;exitY=0.25;exitDx=0;exitDy=0;entryX=-0.017;entryY=0.402;entryDx=0;entryDy=0;entryPerimeter=0;" edge="1" parent="1" source="gQ2CgvajjqF3SDFCfg23-6" target="gQ2CgvajjqF3SDFCfg23-10">
          <mxGeometry relative="1" as="geometry" />
        </mxCell>
        <mxCell id="gQ2CgvajjqF3SDFCfg23-14" value="数据查询" style="edgeLabel;html=1;align=center;verticalAlign=middle;resizable=0;points=[];" vertex="1" connectable="0" parent="gQ2CgvajjqF3SDFCfg23-13">
          <mxGeometry x="0.377" y="2" relative="1" as="geometry">
            <mxPoint x="-18.630000000000003" y="0.3200000000000003" as="offset" />
          </mxGeometry>
        </mxCell>
        <mxCell id="gQ2CgvajjqF3SDFCfg23-6" value="&lt;p style=&quot;line-height: 160%&quot;&gt;&lt;font style=&quot;font-size: 16px&quot;&gt;API应用&lt;/font&gt;&lt;br&gt;JAVA&lt;/p&gt;" style="rounded=0;whiteSpace=wrap;html=1;shadow=0;fillColor=#dae8fc;strokeColor=#6c8ebf;" vertex="1" parent="1">
          <mxGeometry x="220" y="440" width="260" height="60" as="geometry" />
        </mxCell>
        <mxCell id="gQ2CgvajjqF3SDFCfg23-8" value="&lt;p style=&quot;line-height: 160%&quot;&gt;&lt;span style=&quot;font-size: 16px&quot;&gt;数据库服务&lt;/span&gt;&lt;/p&gt;" style="rounded=0;whiteSpace=wrap;html=1;shadow=0;fillColor=#dae8fc;strokeColor=#6c8ebf;" vertex="1" parent="1">
          <mxGeometry x="220" y="580" width="260" height="60" as="geometry" />
        </mxCell>
        <mxCell id="gQ2CgvajjqF3SDFCfg23-11" style="edgeStyle=orthogonalEdgeStyle;rounded=0;orthogonalLoop=1;jettySize=auto;html=1;exitX=0;exitY=0.5;exitDx=0;exitDy=0;entryX=1;entryY=0.75;entryDx=0;entryDy=0;" edge="1" parent="1" source="gQ2CgvajjqF3SDFCfg23-10" target="gQ2CgvajjqF3SDFCfg23-6">
          <mxGeometry relative="1" as="geometry" />
        </mxCell>
        <mxCell id="gQ2CgvajjqF3SDFCfg23-12" value="安防联动" style="edgeLabel;html=1;align=center;verticalAlign=middle;resizable=0;points=[];" vertex="1" connectable="0" parent="gQ2CgvajjqF3SDFCfg23-11">
          <mxGeometry x="0.1524" y="-2" relative="1" as="geometry">
            <mxPoint y="2" as="offset" />
          </mxGeometry>
        </mxCell>
        <mxCell id="gQ2CgvajjqF3SDFCfg23-10" value="" style="rounded=0;whiteSpace=wrap;html=1;shadow=0;fillColor=#f5f5f5;strokeColor=#666666;fontColor=#333333;" vertex="1" parent="1">
          <mxGeometry x="670" y="320" width="120" height="340" as="geometry" />
        </mxCell>
        <mxCell id="gQ2CgvajjqF3SDFCfg23-16" style="edgeStyle=orthogonalEdgeStyle;rounded=0;orthogonalLoop=1;jettySize=auto;html=1;exitX=0.5;exitY=1;exitDx=0;exitDy=0;entryX=0;entryY=0.5;entryDx=0;entryDy=0;" edge="1" parent="1" source="gQ2CgvajjqF3SDFCfg23-15" target="gQ2CgvajjqF3SDFCfg23-8">
          <mxGeometry relative="1" as="geometry" />
        </mxCell>
        <mxCell id="gQ2CgvajjqF3SDFCfg23-21" value="读取巡检对象着色数据" style="edgeLabel;html=1;align=center;verticalAlign=middle;resizable=0;points=[];" vertex="1" connectable="0" parent="gQ2CgvajjqF3SDFCfg23-16">
          <mxGeometry x="-0.1692" y="3" relative="1" as="geometry">
            <mxPoint as="offset" />
          </mxGeometry>
        </mxCell>
        <mxCell id="gQ2CgvajjqF3SDFCfg23-18" style="edgeStyle=orthogonalEdgeStyle;rounded=0;orthogonalLoop=1;jettySize=auto;html=1;exitX=0.5;exitY=0;exitDx=0;exitDy=0;entryX=0;entryY=0.5;entryDx=0;entryDy=0;" edge="1" parent="1" source="gQ2CgvajjqF3SDFCfg23-15" target="gQ2CgvajjqF3SDFCfg23-3">
          <mxGeometry relative="1" as="geometry" />
        </mxCell>
        <mxCell id="gQ2CgvajjqF3SDFCfg23-19" value="&lt;font style=&quot;font-size: 12px&quot;&gt;三维点云流接收&lt;/font&gt;" style="edgeLabel;html=1;align=center;verticalAlign=middle;resizable=0;points=[];" vertex="1" connectable="0" parent="gQ2CgvajjqF3SDFCfg23-18">
          <mxGeometry x="-0.2308" y="-28" relative="1" as="geometry">
            <mxPoint x="-8" y="-4" as="offset" />
          </mxGeometry>
        </mxCell>
        <mxCell id="gQ2CgvajjqF3SDFCfg23-15" value="&lt;font style=&quot;font-size: 16px&quot;&gt;点云渲染服务&lt;/font&gt;" style="rounded=0;whiteSpace=wrap;html=1;shadow=0;fillColor=#dae8fc;strokeColor=#6c8ebf;" vertex="1" parent="1">
          <mxGeometry x="-30" y="440" width="200" height="60" as="geometry" />
        </mxCell>
        <mxCell id="gQ2CgvajjqF3SDFCfg23-22" value="PMS" style="rounded=1;whiteSpace=wrap;html=1;shadow=0;" vertex="1" parent="1">
          <mxGeometry x="685" y="390" width="90" height="40" as="geometry" />
        </mxCell>
        <mxCell id="gQ2CgvajjqF3SDFCfg23-23" value="D5000" style="rounded=1;whiteSpace=wrap;html=1;shadow=0;" vertex="1" parent="1">
          <mxGeometry x="685" y="450" width="90" height="40" as="geometry" />
        </mxCell>
        <mxCell id="gQ2CgvajjqF3SDFCfg23-24" value="统一视频监控系统" style="rounded=1;whiteSpace=wrap;html=1;shadow=0;" vertex="1" parent="1">
          <mxGeometry x="685" y="510" width="90" height="40" as="geometry" />
        </mxCell>
        <mxCell id="gQ2CgvajjqF3SDFCfg23-25" value="第三方系统" style="text;html=1;strokeColor=none;fillColor=none;align=center;verticalAlign=middle;whiteSpace=wrap;rounded=0;shadow=0;fontSize=16;" vertex="1" parent="1">
          <mxGeometry x="680" y="340" width="95" height="20" as="geometry" />
        </mxCell>
        <mxCell id="gQ2CgvajjqF3SDFCfg23-26" value="其他系统" style="rounded=1;whiteSpace=wrap;html=1;shadow=0;" vertex="1" parent="1">
          <mxGeometry x="685" y="570" width="90" height="40" as="geometry" />
        </mxCell>
        <mxCell id="gQ2CgvajjqF3SDFCfg23-29" value="站端巡检系统" style="text;html=1;strokeColor=none;fillColor=none;align=center;verticalAlign=middle;whiteSpace=wrap;rounded=0;shadow=0;" vertex="1" parent="1">
          <mxGeometry x="-350" y="894" width="90" height="20" as="geometry" />
        </mxCell>
        <mxCell id="gQ2CgvajjqF3SDFCfg23-33" style="edgeStyle=orthogonalEdgeStyle;rounded=0;orthogonalLoop=1;jettySize=auto;html=1;exitX=0.5;exitY=1;exitDx=0;exitDy=0;entryX=0.5;entryY=0;entryDx=0;entryDy=0;fontSize=16;" edge="1" parent="1" source="gQ2CgvajjqF3SDFCfg23-30" target="gQ2CgvajjqF3SDFCfg23-31">
          <mxGeometry relative="1" as="geometry" />
        </mxCell>
        <mxCell id="gQ2CgvajjqF3SDFCfg23-35" value="&lt;font style=&quot;font-size: 12px&quot;&gt;http&lt;/font&gt;" style="edgeLabel;html=1;align=center;verticalAlign=middle;resizable=0;points=[];fontSize=16;" vertex="1" connectable="0" parent="gQ2CgvajjqF3SDFCfg23-33">
          <mxGeometry x="-0.151" relative="1" as="geometry">
            <mxPoint as="offset" />
          </mxGeometry>
        </mxCell>
        <mxCell id="gQ2CgvajjqF3SDFCfg23-30" value="&lt;p style=&quot;line-height: 170%&quot;&gt;&lt;font style=&quot;font-size: 16px&quot;&gt;Web应用&lt;/font&gt;&lt;br&gt;HTML/CSS/JS&lt;/p&gt;" style="rounded=0;whiteSpace=wrap;html=1;shadow=0;fillColor=#dae8fc;strokeColor=#6c8ebf;" vertex="1" parent="1">
          <mxGeometry x="230" y="920" width="260" height="60" as="geometry" />
        </mxCell>
        <mxCell id="gQ2CgvajjqF3SDFCfg23-34" style="edgeStyle=orthogonalEdgeStyle;rounded=0;orthogonalLoop=1;jettySize=auto;html=1;exitX=0.5;exitY=1;exitDx=0;exitDy=0;entryX=0.5;entryY=0;entryDx=0;entryDy=0;fontSize=16;" edge="1" parent="1" source="gQ2CgvajjqF3SDFCfg23-31" target="gQ2CgvajjqF3SDFCfg23-32">
          <mxGeometry relative="1" as="geometry" />
        </mxCell>
        <mxCell id="gQ2CgvajjqF3SDFCfg23-36" value="&lt;font style=&quot;font-size: 12px&quot;&gt;读/写&lt;/font&gt;" style="edgeLabel;html=1;align=center;verticalAlign=middle;resizable=0;points=[];fontSize=16;" vertex="1" connectable="0" parent="gQ2CgvajjqF3SDFCfg23-34">
          <mxGeometry x="-0.0786" relative="1" as="geometry">
            <mxPoint as="offset" />
          </mxGeometry>
        </mxCell>
        <mxCell id="gQ2CgvajjqF3SDFCfg23-50" value="站端数据同步&lt;br&gt;如(任务数据，巡检数据，报警数据)等" style="edgeStyle=orthogonalEdgeStyle;rounded=0;orthogonalLoop=1;jettySize=auto;html=1;exitX=1;exitY=0.5;exitDx=0;exitDy=0;entryX=1;entryY=0.5;entryDx=0;entryDy=0;startArrow=none;startFill=0;fontSize=12;endArrow=classic;endFill=1;" edge="1" parent="1" source="gQ2CgvajjqF3SDFCfg23-31" target="gQ2CgvajjqF3SDFCfg23-6">
          <mxGeometry relative="1" as="geometry">
            <Array as="points">
              <mxPoint x="540" y="1080" />
              <mxPoint x="540" y="470" />
            </Array>
          </mxGeometry>
        </mxCell>
        <mxCell id="gQ2CgvajjqF3SDFCfg23-31" value="&lt;p style=&quot;line-height: 160%&quot;&gt;&lt;font style=&quot;font-size: 16px&quot;&gt;API应用&lt;/font&gt;&lt;br&gt;JAVA&lt;/p&gt;" style="rounded=0;whiteSpace=wrap;html=1;shadow=0;fillColor=#dae8fc;strokeColor=#6c8ebf;" vertex="1" parent="1">
          <mxGeometry x="230" y="1050" width="260" height="60" as="geometry" />
        </mxCell>
        <mxCell id="gQ2CgvajjqF3SDFCfg23-32" value="&lt;p style=&quot;line-height: 160%&quot;&gt;&lt;span style=&quot;font-size: 16px&quot;&gt;数据库服务&lt;/span&gt;&lt;/p&gt;" style="rounded=0;whiteSpace=wrap;html=1;shadow=0;fillColor=#dae8fc;strokeColor=#6c8ebf;" vertex="1" parent="1">
          <mxGeometry x="230" y="1190" width="260" height="60" as="geometry" />
        </mxCell>
        <mxCell id="gQ2CgvajjqF3SDFCfg23-38" style="edgeStyle=orthogonalEdgeStyle;rounded=0;orthogonalLoop=1;jettySize=auto;html=1;exitX=0.5;exitY=0.5;exitDx=0;exitDy=0;exitPerimeter=0;fontSize=16;" edge="1" parent="1" source="gQ2CgvajjqF3SDFCfg23-37" target="gQ2CgvajjqF3SDFCfg23-30">
          <mxGeometry relative="1" as="geometry" />
        </mxCell>
        <mxCell id="gQ2CgvajjqF3SDFCfg23-39" value="通过浏览器访问" style="edgeLabel;html=1;align=center;verticalAlign=middle;resizable=0;points=[];fontSize=12;" vertex="1" connectable="0" parent="gQ2CgvajjqF3SDFCfg23-38">
          <mxGeometry x="-0.0121" relative="1" as="geometry">
            <mxPoint as="offset" />
          </mxGeometry>
        </mxCell>
        <mxCell id="gQ2CgvajjqF3SDFCfg23-37" value="用户" style="shape=umlActor;verticalLabelPosition=bottom;labelBackgroundColor=#ffffff;verticalAlign=top;html=1;outlineConnect=0;" vertex="1" parent="1">
          <mxGeometry x="345" y="737" width="30" height="60" as="geometry" />
        </mxCell>
        <mxCell id="gQ2CgvajjqF3SDFCfg23-41" style="edgeStyle=orthogonalEdgeStyle;rounded=0;orthogonalLoop=1;jettySize=auto;html=1;exitX=0.5;exitY=0;exitDx=0;exitDy=0;entryX=0;entryY=0.5;entryDx=0;entryDy=0;fontSize=12;startArrow=classic;startFill=1;" edge="1" parent="1" source="gQ2CgvajjqF3SDFCfg23-40" target="gQ2CgvajjqF3SDFCfg23-30">
          <mxGeometry relative="1" as="geometry" />
        </mxCell>
        <mxCell id="gQ2CgvajjqF3SDFCfg23-43" value="机器人的消息订阅/发布" style="edgeLabel;html=1;align=center;verticalAlign=middle;resizable=0;points=[];fontSize=12;" vertex="1" connectable="0" parent="gQ2CgvajjqF3SDFCfg23-41">
          <mxGeometry x="-0.2308" y="-6" relative="1" as="geometry">
            <mxPoint x="6" y="-6" as="offset" />
          </mxGeometry>
        </mxCell>
        <mxCell id="gQ2CgvajjqF3SDFCfg23-40" value="&lt;p style=&quot;line-height: 160%&quot;&gt;&lt;span style=&quot;font-size: 16px&quot;&gt;RosBridge消息服务&lt;/span&gt;&lt;/p&gt;" style="rounded=0;whiteSpace=wrap;html=1;shadow=0;fillColor=#dae8fc;strokeColor=#6c8ebf;" vertex="1" parent="1">
          <mxGeometry x="-340" y="1160" width="260" height="60" as="geometry" />
        </mxCell>
        <mxCell id="gQ2CgvajjqF3SDFCfg23-48" value="&lt;p style=&quot;line-height: 160%&quot;&gt;&lt;span style=&quot;font-size: 16px&quot;&gt;任务调度模块&lt;/span&gt;&lt;/p&gt;" style="rounded=0;whiteSpace=wrap;html=1;shadow=0;fillColor=#dae8fc;strokeColor=#6c8ebf;" vertex="1" parent="1">
          <mxGeometry y="1110" width="160" height="60" as="geometry" />
        </mxCell>
        <mxCell id="gQ2CgvajjqF3SDFCfg23-49" value="&lt;p style=&quot;line-height: 160%&quot;&gt;&lt;span style=&quot;font-size: 16px&quot;&gt;路径规划模块&lt;/span&gt;&lt;/p&gt;" style="rounded=0;whiteSpace=wrap;html=1;shadow=0;fillColor=#dae8fc;strokeColor=#6c8ebf;" vertex="1" parent="1">
          <mxGeometry y="1034" width="160" height="60" as="geometry" />
        </mxCell>
        <mxCell id="gQ2CgvajjqF3SDFCfg23-52" style="edgeStyle=orthogonalEdgeStyle;rounded=0;orthogonalLoop=1;jettySize=auto;html=1;exitX=0;exitY=0.5;exitDx=0;exitDy=0;entryX=0;entryY=0.75;entryDx=0;entryDy=0;startArrow=classic;startFill=1;fontSize=12;" edge="1" parent="1" source="gQ2CgvajjqF3SDFCfg23-51" target="gQ2CgvajjqF3SDFCfg23-30">
          <mxGeometry relative="1" as="geometry" />
        </mxCell>
        <mxCell id="gQ2CgvajjqF3SDFCfg23-53" value="接收三维点云视频流" style="edgeLabel;html=1;align=center;verticalAlign=middle;resizable=0;points=[];fontSize=12;" vertex="1" connectable="0" parent="gQ2CgvajjqF3SDFCfg23-52">
          <mxGeometry x="-0.1118" y="1" relative="1" as="geometry">
            <mxPoint y="-17.14" as="offset" />
          </mxGeometry>
        </mxCell>
        <mxCell id="gQ2CgvajjqF3SDFCfg23-58" style="edgeStyle=orthogonalEdgeStyle;rounded=0;orthogonalLoop=1;jettySize=auto;html=1;exitX=0.5;exitY=1;exitDx=0;exitDy=0;startArrow=none;startFill=0;endArrow=classic;endFill=1;fontSize=12;entryX=1;entryY=0.5;entryDx=0;entryDy=0;" edge="1" parent="1" source="gQ2CgvajjqF3SDFCfg23-51" target="gQ2CgvajjqF3SDFCfg23-8">
          <mxGeometry relative="1" as="geometry">
            <mxPoint x="640" y="921.4285714285712" as="targetPoint" />
            <Array as="points">
              <mxPoint x="80" y="1350" />
              <mxPoint x="650" y="1350" />
              <mxPoint x="650" y="610" />
            </Array>
          </mxGeometry>
        </mxCell>
        <mxCell id="gQ2CgvajjqF3SDFCfg23-59" value="点云着色数据同步" style="edgeLabel;html=1;align=center;verticalAlign=middle;resizable=0;points=[];fontSize=12;" vertex="1" connectable="0" parent="gQ2CgvajjqF3SDFCfg23-58">
          <mxGeometry x="0.3042" y="-2" relative="1" as="geometry">
            <mxPoint as="offset" />
          </mxGeometry>
        </mxCell>
        <mxCell id="gQ2CgvajjqF3SDFCfg23-51" value="&lt;p style=&quot;line-height: 160%&quot;&gt;&lt;span style=&quot;font-size: 16px&quot;&gt;着色服务模块&lt;/span&gt;&lt;/p&gt;" style="rounded=0;whiteSpace=wrap;html=1;shadow=0;fillColor=#dae8fc;strokeColor=#6c8ebf;" vertex="1" parent="1">
          <mxGeometry y="1190" width="160" height="60" as="geometry" />
        </mxCell>
      </root>
    </mxGraphModel>
  </diagram>
</mxfile>
